# xmcd CD database file
#
# Track frame offsets:
#	150
#	23643
#	41469
#	75880
#	97722
#	129513
#	154200
#	170701
#	187826
#	212312
#	239825
#
# Disc length: 3448 seconds
#
# Revision: 0
# Processed by: cddbd v1.5.1PL0 Copyright (c) Steve Scherf et al.
# Submitted via: CDex 1.60beta1
#
DISCID=7a0d760b
DTITLE=Joe LoCascio - Close To So Far
DYEAR=2002
DGENRE=Jazz
TTITLE0=Turnabout
TTITLE1=In The Quiet Of Autumn
TTITLE2=Close To So Far
TTITLE3=For You
TTITLE4=And Her Look Touching The Air
TTITLE5=Edland
TTITLE6=Purgatory,Tx
TTITLE7=Idiot's Delight
TTITLE8=A Goodbye Moment
TTITLE9=Big Motel
TTITLE10=Catherine
EXTD=YEAR: 2002
EXTT0=
EXTT1=
EXTT2=
EXTT3=
EXTT4=
EXTT5=
EXTT6=
EXTT7=
EXTT8=
EXTT9=
EXTT10=
PLAYORDER=
